# xmcd CD database file
#
# Track frame offsets:
#	150
#	27462
#	46677
#	66153
#	84920
#	107286
#	124620
#	145528
#	168358
#	190273
#	223379
#	244195
#	276631
#	301845
#
# Disc length: 4409 seconds
#
# Revision: 1
# Processed by: cddbd v1.5.2PL0 Copyright (c) Steve Scherf et al.
# Submitted via: CDex 1.51
#
DISCID=c011370e
DTITLE=Night Ranger - Live Wishes
DYEAR=1985
DGENRE=Hard Rock
TTITLE0=Seven Wishes
TTITLE1=This Boy Needs To Rock
TTITLE2=Sentimental Street
TTITLE3=Sing Me Away
TTITLE4=Rumours In The Air
TTITLE5=Four In The Morning
TTITLE6=When You Close Your Eyes
TTITLE7=Faces
TTITLE8=Eddie's Comin' Out Tonight
TTITLE9=Night Ranger
TTITLE10=Touch Of Madness
TTITLE11=(You Can Still) Rock In Americ
TTITLE12=Sister Christian
TTITLE13=Don't Tell Me You Love Me
EXTD=YEAR: 1985
EXTT0=
EXTT1=
EXTT2=
EXTT3=
EXTT4=
EXTT5=
EXTT6=
EXTT7=
EXTT8=
EXTT9=
EXTT10=
EXTT11=
EXTT12=
EXTT13=
PLAYORDER=
